# xmcd
#
# Track frame offsets: 
#        150
#        12185
#        27880
#        44820
#        61927
#        81970
#        100052
#        116920
#        139211
#        154558
#        168455
#        185005
#        202569
#
# Disc length: 3004 seconds
#
# Revision: 0
# Processed by: cddbd v1.5.2PL0 Copyright (c) Steve Scherf et al.
# Submitted via: ExactAudioCopy v0.95a3
#
DISCID=a90bba0d
DTITLE=Slow Horses - Slow Horses
DYEAR=2009
DGENRE=Country
TTITLE0=On Your Own Feet
TTITLE1=Right From The Start
TTITLE2=Gimme More
TTITLE3=Rough Seas
TTITLE4=Never Forget You
TTITLE5=Take Me Back To Graceland
TTITLE6=Life Is A Rodeo
TTITLE7=Full Moon Fever
TTITLE8=Thee Road Less Traveled
TTITLE9=Back In 1948
TTITLE10=Riding In The Rain
TTITLE11=Self-Satisfied Smile
TTITLE12=Time
EXTD=
EXTT0=
EXTT1=
EXTT2=
EXTT3=
EXTT4=
EXTT5=
EXTT6=
EXTT7=
EXTT8=
EXTT9=
EXTT10=
EXTT11=
EXTT12=
PLAYORDER=
